<!-- Generator: Adobe Illustrator 19.0.0, SVG Export Plug-In  -->
<svg version="1.1"
	 xmlns="http://www.w3.org/2000/svg" xmlns:xlink="http://www.w3.org/1999/xlink" xmlns:a="http://ns.adobe.com/AdobeSVGViewerExtensions/3.0/"
	 x="0px" y="0px" width="50px" height="50px" viewBox="0 0 50 50" style="enable-background:new 0 0 50 50;" xml:space="preserve">
<style type="text/css">
	.st0{fill-rule:evenodd;clip-rule:evenodd;fill:none;stroke:#c8cadd;stroke-width:2;stroke-miterlimit:10;}
	.st1{fill:#c8cadd;}
</style>
<defs>
</defs>
<circle class="st0" cx="25" cy="25" r="24"/>
<g>
	<path class="st1" d="M10.9,44.4c0,0-0.1-0.1-0.1-0.1C10.8,44.4,10.9,44.4,10.9,44.4z"/>
	<path class="st1" d="M44.5,39c-0.1,0.1-0.1,0.2-0.2,0.2C44.4,39.2,44.4,39.1,44.5,39z"/>
	<path class="st1" d="M17.4,47.8C17.4,47.8,17.4,47.8,17.4,47.8c0,0-0.1,0-0.1,0C17.3,47.7,17.4,47.8,17.4,47.8z"/>
	<path class="st1" d="M32.6,47.8c0.1,0,0.1,0,0.2-0.1C32.7,47.7,32.6,47.8,32.6,47.8C32.6,47.8,32.6,47.8,32.6,47.8z"/>
	<path class="st1" d="M31,46.6c0-0.8,0-3.4,0-6.6c0-2.2-0.8-3.7-1.6-4.4c5.3-0.6,11-2.6,11-11.8c0-2.6-0.9-4.8-2.5-6.4
		c0.2-0.6,1.1-3-0.2-6.4c0,0-2-0.6-6.6,2.5c-1.9-0.5-4-0.8-6-0.8c-2,0-4.1,0.3-6,0.8c-4.6-3.1-6.6-2.5-6.6-2.5
		c-1.3,3.3-0.5,5.7-0.2,6.4c-1.5,1.7-2.5,3.8-2.5,6.4c0,9.2,5.6,11.3,10.9,11.9c-0.7,0.6-1.3,1.7-1.5,3.2c-1.4,0.6-4.8,1.7-7-2
		c0,0-1.3-2.3-3.7-2.5c0,0-2.3,0-0.2,1.5c0,0,1.6,0.7,2.7,3.5c0,0,1.4,4.7,8.1,3.2c0,2,0,3.5,0,4.1c0,0.6-0.4,1.4-1.6,1.2
		c2.4,0.8,4.9,1.2,7.6,1.2c2.6,0,5.2-0.4,7.6-1.2C31.4,48,31,47.3,31,46.6z"/>
</g>
</svg>
