<!-- Generator: Adobe Illustrator 19.0.0, SVG Export Plug-In  -->
<svg version="1.1"
	 xmlns="http://www.w3.org/2000/svg" xmlns:xlink="http://www.w3.org/1999/xlink" xmlns:a="http://ns.adobe.com/AdobeSVGViewerExtensions/3.0/"
	 x="0px" y="0px" width="612px" height="612px" viewBox="0 0 612 612" style="enable-background:new 0 0 612 612;"
	 xml:space="preserve">
 <style type="text/css">
	.st0{fill:#C8CADD;}
</style>
<defs>
</defs>
<path class="st0" d="M612,306C612,137,475,0,306,0C137,0,0,137,0,306s137,306,306,306C475,612,612,475,612,306 M27.8,306
	C27.8,152.4,152.4,27.8,306,27.8S584.2,152.4,584.2,306S459.6,584.2,306,584.2S27.8,459.6,27.8,306"/>
<g>
	<path class="st0" d="M228.5,193.8c0,16.9-12.5,30.6-33,30.6c-19.3,0-31.8-13.7-31.8-30.6c0-17.3,12.9-30.6,32.6-30.6
		C216,163.2,228.1,176.5,228.5,193.8z M165.3,445.4V248.6h61.2v196.8H165.3z"/>
	<path class="st0" d="M263.1,311.4c0-24.6-0.8-45.1-1.6-62.8h53.1l2.8,27.4h1.2c8-12.9,27.8-31.8,60.8-31.8c40.3,0,70.4,27,70.4,84.9v116.3
		h-61.2V336.3c0-25.4-8.9-42.7-31-42.7c-16.9,0-27,11.7-31.4,22.9c-1.6,4-2,9.7-2,15.3v113.5h-61.2V311.4z"/>
</g>
</svg>
